<svg width="131" height="192" viewBox="0 0 131 192" fill="none" xmlns="http://www.w3.org/2000/svg">
<g opacity="0.5">
<path opacity="0.5" fill-rule="evenodd" clip-rule="evenodd" d="M95.29 1.7919C95.2877 3.96837 94.9292 7.18006 95.9883 9.22948C97.3317 11.8291 99.0122 11.0165 99.4575 8.57361C99.7124 7.1739 99.7063 3.03162 99.2316 1.7919C98.5601 0.037109 95.29 -1.15809 95.29 1.7919Z" fill="#0E52B0"/>
<path opacity="0.5" fill-rule="evenodd" clip-rule="evenodd" d="M15.4486 75.3421C24.9303 76.9025 21.9804 90.5984 13.0086 87.4262C9.88259 86.3208 5.27628 83.1268 7.00422 79.3635C8.29492 76.5518 12.5014 75.0743 15.4486 75.3421ZM11.523 71.0836C5.35655 72.0671 1.14086 78.3891 3.2552 83.9036C5.29463 89.2237 13.0308 93.1195 18.7359 91.2076C24.1823 89.3822 26.8994 82.5169 25.0633 77.4947C23.1446 72.2473 16.8945 70.2269 11.523 71.0836Z" fill="#0E52B0"/>
<path opacity="0.5" fill-rule="evenodd" clip-rule="evenodd" d="M69.1976 76.944C66.8371 77.1297 64.7969 78.6955 62.4215 78.9728C60.2006 79.232 58.3599 78.512 56.2803 77.9365C53.7666 77.2412 51.4611 76.9353 48.8924 77.5532C46.9294 78.0255 44.9931 79.291 42.9541 79.4437C38.9417 79.7438 34.2785 75.4068 31.1459 80.3121C29.6443 82.6637 31.8247 84.1785 34.0709 83.0818C36.4127 81.9387 35.263 81.5293 38.1678 82.2048C40.5913 82.7676 42.5501 83.0735 44.9778 82.2844C47.177 81.5699 49.1075 80.2621 51.4974 80.1152C53.8377 79.9715 55.8737 80.9813 58.1107 81.4171C60.8618 81.9528 63.296 81.5474 65.9026 80.7305C68.382 79.9534 69.3711 79.5284 71.873 80.2216C73.4573 80.6606 76.9181 82.0553 78.4599 80.9314C81.1261 78.9884 77.5568 78.7042 76.151 78.4281C73.888 77.9839 71.5462 76.7619 69.1976 76.944Z" fill="#0E52B0"/>
<path opacity="0.5" fill-rule="evenodd" clip-rule="evenodd" d="M123.217 75.6388C123.236 75.6526 123.255 75.6663 123.273 75.6801C123.255 75.6663 123.236 75.6526 123.217 75.6388ZM120.9 75.1795C124.346 75.3898 128.073 81.3375 123.506 81.5486C120.292 81.6973 116.696 76.4891 120.9 75.1795ZM120.416 70.3126C109.518 73.1956 114.5 87.7511 125.012 86.0698C129.786 85.3061 131.404 80.0656 129.826 76.1865C129.148 74.5204 127.826 73.1156 126.247 72.1567C125.081 71.4495 121.748 69.9611 120.416 70.3126Z" fill="#0E52B0"/>
<path opacity="0.5" fill-rule="evenodd" clip-rule="evenodd" d="M3.23159 163.341C2.90984 161.986 3.08396 159.916 3.06604 159.437C2.98195 157.193 2.95252 154.949 2.86118 152.705C2.64409 147.36 2.5 141.984 2.06505 136.65C1.6496 131.552 0.600071 126.608 0.569877 121.472C0.54962 117.998 -0.469331 109.197 2.74193 106.837C8.26055 103.786 6.07817 114.55 5.98759 116.413C5.71546 122.022 6.08467 127.384 6.68052 132.958C7.22631 138.066 6.59873 143.151 6.38929 148.26C6.27806 150.972 6.2173 153.68 6.00173 156.388C5.93477 157.232 6.0379 161.037 5.57046 163.063C6.77373 163.014 7.91832 163.065 8.55687 163.047C13.0275 162.919 17.4985 162.807 21.9683 162.647C39.1636 162.035 56.3684 162.312 73.5603 161.538C89.8211 160.806 106.141 160.651 122.414 160.461C123.838 160.579 124.475 161.995 123.561 163.083C122.667 164.147 118.523 163.914 117.231 164.013C112.647 164.362 108.073 164.519 103.476 164.56C93.7944 164.648 84.1499 165.041 74.4848 165.563C57.3121 166.49 40.1142 166.414 22.9323 167.076C18.7617 167.236 14.5907 167.356 10.4182 167.46C8.21786 167.515 2.45578 168.77 1.36574 166.28C0.595791 164.52 1.66609 163.71 3.23159 163.341ZM98.3522 99.9914C103.555 99.9458 108.729 100.032 113.923 100.314C116.227 100.439 118.53 100.56 120.836 100.653C122.168 100.706 125.21 100.293 126.378 100.878C130.964 103.176 121.621 103.428 120.486 103.41C115.719 103.334 110.963 102.983 106.197 102.872C88.6683 102.464 71.0091 103.475 53.4962 104.155C45.0717 104.483 36.6518 104.529 28.2303 104.977C23.6275 105.222 19.0269 105.503 14.4233 105.732C12.3009 105.839 10.1778 105.941 8.05236 105.992C6.74332 106.023 4.07746 106.537 2.86741 106.068C1.83699 105.669 1.00379 105.111 1.57021 103.928C2.18021 102.655 4.83498 103.197 5.95866 103.176C10.0154 103.102 14.0633 102.886 18.1127 102.651C27.3073 102.118 36.4825 101.494 45.6958 101.345C63.253 101.062 80.7869 100.146 98.3522 99.9914ZM122.503 105.66C122.506 103.379 125.393 102.921 126.674 104.472C127.898 105.955 127.11 110.447 127.14 112.222C127.238 118.072 127.822 123.887 128.377 129.71C128.927 135.484 129.316 141.262 129.741 147.046C129.938 149.719 132.106 160.387 128.955 161.945C124.932 163.932 125.691 153.82 125.579 151.977C125.217 146.043 124.763 140.101 124.196 134.181C123.28 124.612 122.496 115.268 122.503 105.66Z" fill="#0E52B0"/>
<path opacity="0.5" fill-rule="evenodd" clip-rule="evenodd" d="M69.3813 133.128C74.8965 134.985 80.3806 136.925 85.8405 138.923C88.7621 139.992 91.6679 141.096 94.583 142.181C96.043 142.724 102.114 144.087 102.464 145.469C102.956 147.419 96.4845 145.023 95.4548 144.711C92.5462 143.831 89.674 142.845 86.8018 141.864C80.375 139.671 73.9758 137.408 67.5239 135.281C66.9203 135.082 66.3165 134.883 65.7125 134.686C58.8641 137.6 52.0293 140.542 45.2168 143.531C41.5641 145.134 37.9308 146.774 34.3076 148.436C31.6214 149.669 26.7598 153.185 23.8008 153.124C22.6814 153.1 21.9269 152.873 21.8099 151.587C21.6609 149.943 24.4563 149.268 25.5857 148.733C29.4582 146.898 33.3547 145.109 37.2624 143.343C45.0234 139.836 52.857 136.469 60.7185 133.169C60.7637 133.15 60.809 133.131 60.8542 133.112C56.4942 131.715 52.122 130.35 47.7403 129.014C45.2361 128.251 27.6785 124.146 28.3187 121.942C29.0376 119.472 44.5883 125.296 46.9801 126.018C52.8685 127.796 58.7406 129.624 64.5821 131.535C78.6001 125.569 92.7669 119.212 107.389 114.87C108.31 114.597 108.892 115.497 108.683 116.251C108.403 117.262 105.123 118.079 104.213 118.464C100.612 119.988 96.9925 121.474 93.3914 122.998C85.5463 126.319 77.6864 129.609 69.8424 132.932C69.6887 132.998 69.535 133.063 69.3813 133.128Z" fill="#0E52B0"/>
<path opacity="0.5" fill-rule="evenodd" clip-rule="evenodd" d="M17.5274 174.906C21.1128 175.502 23.6418 178.76 23.2486 182.173C22.7169 186.783 17.8664 188.897 13.3854 188.295C8.30101 187.612 7.2316 183.54 9.6949 179.623C10.2403 178.755 10.8675 177.718 11.8589 177.261C12.5404 176.947 13.4088 177.225 13.9576 176.972C15.882 176.085 14.7251 174.671 17.5274 174.906ZM15.895 171.895C11.5199 172.424 3.43596 177.22 3.84529 182.019C4.20036 182.576 4.7343 182.803 5.4471 182.702C5.27549 183.742 5.3313 184.77 5.61489 185.788C6.03034 187.108 6.85934 188.191 7.9704 189.051C10.2583 190.823 13.3858 191.257 16.2348 190.947C21.5546 190.367 25.7474 186.923 26.0463 181.681C26.3379 176.564 21.6234 171.209 15.895 171.895Z" fill="#0E52B0"/>
<path opacity="0.5" fill-rule="evenodd" clip-rule="evenodd" d="M37.0889 178.139C35.1259 179.125 32.0205 180.639 30.8693 182.511C29.6531 184.488 30.9125 186.651 33.4748 185.716C35.5089 184.973 36.8026 182.614 38.9724 181.858C40.8872 181.191 41.6589 181.531 43.6826 182.195C45.7679 182.88 47.5907 183.541 49.8449 183.373C52.6781 183.162 55.1319 181.606 57.9051 181.252C60.24 180.954 62.1655 181.814 64.4018 182.157C66.9962 182.554 68.6924 181.624 71.1198 181.139C72.7709 180.81 75.681 182.151 76.8853 181.649C79.5932 180.521 76.7286 179.142 75.2296 178.686C72.7044 177.919 71.1504 178.596 68.7486 179.232C66.1408 179.923 65.0145 179.404 62.5218 178.77C57.4786 177.486 53.5824 180.59 48.8022 180.026C44.3763 179.503 41.7281 175.812 37.0889 178.139Z" fill="#0E52B0"/>
<path opacity="0.5" fill-rule="evenodd" clip-rule="evenodd" d="M119.551 175.845C124.405 180.157 118.952 186.292 113.599 182.846C111.715 181.633 111.685 179.685 113.151 177.942C114.492 176.348 117.438 175.726 119.551 175.845ZM117.751 172.361C113.216 173.197 108.938 175.168 108.528 180.127C108.127 184.966 113.365 187.213 117.766 186.895C127.646 186.183 126.931 170.68 117.751 172.361Z" fill="#0E52B0"/>
</g>
</svg>
