<svg width="118" height="140" viewBox="0 0 118 140" fill="none" xmlns="http://www.w3.org/2000/svg">
<g opacity="0.5">
<path opacity="0.5" fill-rule="evenodd" clip-rule="evenodd" d="M1.40379 2.65639C0.107786 3.88225 0.611194 8.23898 0.584034 9.85127C0.542339 12.3613 0.707209 14.8488 0.928693 17.3497C1.07711 19.0243 1.91371 35.0042 4.24178 33.7769C5.55423 33.0855 4.73141 28.4628 4.72912 27.0007C4.72376 23.75 4.58108 20.5074 4.35233 17.264C4.13964 14.2529 4.00614 11.2769 4.12855 8.25997C4.15839 7.52366 4.88557 -0.648154 1.40379 2.65639Z" fill="#0E52B0"/>
<path opacity="0.5" fill-rule="evenodd" clip-rule="evenodd" d="M57.8415 0.686612C46.7076 0.770555 35.5783 1.29086 24.4498 1.60963C19.0948 1.76304 13.7432 1.95806 8.39391 2.2392C6.57116 2.33509 2.66171 1.78222 1.14307 2.70234C-2.22816 4.7452 3.20872 5.22281 4.65813 5.17288C26.6815 4.4163 48.7125 3.41984 70.7546 3.3728C81.5671 3.35 92.3743 3.64163 103.188 3.57614C107.322 3.55118 111.899 1.86399 112.943 6.42226C114.121 11.566 112.767 17.2929 112.399 22.4616C112.153 25.9119 112.241 29.2907 112.405 32.7381C112.51 34.9467 112.236 37.4353 112.648 39.6027C113.045 41.6897 114.628 42.9412 116.08 40.6035C116.947 39.2065 116.516 35.7572 116.574 34.1387C116.651 31.9591 116.578 29.7802 116.578 27.6002C116.577 22.2792 117.37 16.9792 117.266 11.6593C117.198 8.22885 117.006 2.0098 112.439 1.18557C107.41 0.27775 101.228 1.19063 96.0814 1.13491C83.3291 0.997057 70.5981 0.592176 57.8415 0.686612Z" fill="#0E52B0"/>
<path opacity="0.5" fill-rule="evenodd" clip-rule="evenodd" d="M27.1624 33.9679C22.9642 33.9679 18.7655 33.9918 14.5677 34.0576C10.9673 34.1141 5.30664 33.4031 1.95569 34.6235C-0.338341 35.459 -0.94771 37.8854 1.95569 38.5316C5.12226 39.2368 9.8947 38.084 13.2078 38.0287C29.821 37.7508 46.5942 37.3886 63.1841 38.384C78.7293 39.3164 94.574 40.2206 110.142 39.2364C111.452 39.1536 118.132 38.9017 115.084 36.5293C113.306 35.1446 106.098 36.0553 103.786 35.9891C95.6344 35.756 87.4743 35.7043 79.3249 35.4116C71.2818 35.1225 63.2743 34.2657 55.2286 34.0537C45.8811 33.8073 36.513 33.9679 27.1624 33.9679Z" fill="#0E52B0"/>
<path opacity="0.5" fill-rule="evenodd" clip-rule="evenodd" d="M22.9622 11.3453C29.5058 11.616 35.9797 20.6066 29.3589 24.9517C23.1478 29.0288 11.507 24.5606 14.9609 16.6547C14.4644 17.7977 15.5886 15.413 15.6028 15.397C16.2596 14.664 17.4389 13.8524 18.2483 13.2746C19.1748 12.6132 20.1396 11.8852 21.2565 11.5537C21.9898 11.3363 21.8747 12.1547 22.9622 11.3453ZM19.7754 8.10265C16.7129 9.23552 15.3151 10.5135 13.2104 12.8259C11.7541 14.4263 9.89772 15.2682 9.91417 17.4309C9.91761 17.9095 10.5668 18.4356 10.6788 18.8966C10.8338 19.5338 10.6544 20.3501 10.7772 21.027C12.0441 28.0124 20.8415 30.3675 27.281 29.0487C32.8904 27.8999 37.0856 22.7985 35.7861 17.2514C34.4779 11.6673 25.7375 5.89335 19.7754 8.10265Z" fill="#0E52B0"/>
<path opacity="0.5" fill-rule="evenodd" clip-rule="evenodd" d="M17.0466 17.8544C17.0466 20.3673 21.2365 20.3673 21.2365 17.8544C21.2365 15.3702 17.0466 15.2634 17.0466 17.8544Z" fill="#0E52B0"/>
<path opacity="0.5" fill-rule="evenodd" clip-rule="evenodd" d="M22.2883 17.3457C22.2883 19.3426 25.6175 19.3426 25.6175 17.3457C25.6175 15.3716 22.2883 15.2873 22.2883 17.3457Z" fill="#0E52B0"/>
<path opacity="0.5" fill-rule="evenodd" clip-rule="evenodd" d="M23.3202 21.4637C22.2541 21.8519 20.9019 21.0469 20.0267 21.5773C18.4767 22.5173 20.0305 23.368 20.8613 23.7457C24.6021 25.4463 25.2677 20.757 23.3202 21.4637Z" fill="#0E52B0"/>
<path opacity="0.5" fill-rule="evenodd" clip-rule="evenodd" d="M80.45 15.8945C79.9416 16.0986 80.3387 15.9394 80.45 15.8945V15.8945ZM64.1596 13.6389C61.3599 14.2377 58.9959 16.7148 55.954 16.3834C53.6229 16.1294 52.0445 13.9982 49.7433 13.6885C46.7993 13.2919 38.7872 19.6543 42.9996 20.7459C45.4574 21.3831 46.8207 17.128 48.992 16.9019C50.7095 16.7231 53.0452 18.7186 54.8252 19.0026C58.1455 19.5327 60.4258 17.7999 63.3406 16.6826C66.508 15.4683 68.3101 16.5617 71.0647 17.9113C73.239 18.9766 75.2866 19.6702 77.7746 19.2306C80.1096 18.8184 83.0428 16.5436 85.393 16.777C87.6951 17.0057 89.3381 19.2816 91.7059 19.4929C92.6821 19.5797 94.1354 19.8949 93.9713 18.4678C93.8401 17.3252 92.4943 17.5188 91.6524 17.1034C89.4873 16.0353 87.4622 14.1433 84.8491 14.3047C82.8837 14.4262 81.0942 15.7346 79.2829 16.3606C73.3507 18.4103 70.0158 12.3946 64.1596 13.6389Z" fill="#0E52B0"/>
<path opacity="0.5" fill-rule="evenodd" clip-rule="evenodd" d="M69.115 49.8329C57.672 49.9324 46.1904 50.0934 34.7795 50.9625C32.0743 51.1684 4.45109 53.6393 4.50349 53.8173C4.60027 54.1465 8.1532 54.6495 8.13102 54.7273C7.89155 54.1646 7.34415 53.9316 6.4892 54.0289C32.6875 54.0289 58.8027 51.8066 85.0354 52.2064C91.6268 52.3067 98.243 52.2647 104.83 52.4615C106.474 52.5107 110.549 53.6273 111.84 52.9239C115.229 51.0775 109.072 50.8644 108.052 50.787C95.1426 49.8086 82.0609 49.7106 69.115 49.8329Z" fill="#0E52B0"/>
<path opacity="0.5" fill-rule="evenodd" clip-rule="evenodd" d="M1.11252 55.1003C-0.598146 56.7253 0.977109 62.5709 1.04443 64.7679C1.14198 67.9444 1.06165 71.1433 1.35581 74.3114C1.69167 77.9304 2.21268 81.786 3.2149 85.2971C3.76689 87.2314 5.7044 90.3055 6.47214 86.7907C7.0203 84.2804 6.18792 80.9502 5.89835 78.3928C5.51084 74.9717 5.41712 71.5956 5.40259 68.1579C5.38958 65.1623 5.32876 62.1545 5.06941 59.1683C4.93475 57.6179 4.11155 52.2741 1.11252 55.1003Z" fill="#0E52B0"/>
<path opacity="0.5" fill-rule="evenodd" clip-rule="evenodd" d="M44.1527 84.8703C36.0324 85.0024 27.8944 85.1837 19.7879 85.6642C16.4652 85.8614 13.1453 86.1548 9.83485 86.4877C9.1593 86.5554 1.68239 86.843 5.0234 89.4572C6.53133 90.6375 12.7344 89.0056 14.7832 88.8356C18.2291 88.5494 21.6741 88.3634 25.1299 88.2248C33.137 87.9028 41.1686 87.6184 49.1837 87.7501C63.8216 87.9907 78.3653 88.0982 93.0074 87.7888C95.0876 87.745 111.385 88.1575 111.939 86.1071C112.385 84.4546 106.557 85.2126 105.494 85.2427C101.596 85.353 97.6968 85.3273 93.7969 85.3085C77.2766 85.2282 60.6603 84.6058 44.1527 84.8703Z" fill="#0E52B0"/>
<path opacity="0.5" fill-rule="evenodd" clip-rule="evenodd" d="M109.18 52.3585C109.438 59.2082 110.669 66.05 111.063 72.9203C111.243 76.061 111.455 79.1987 111.617 82.3404C111.669 83.3539 111.238 85.7958 112.503 86.3787C114.238 87.1784 114.472 85.5672 114.797 84.4774C115.735 81.3295 115.101 77.2405 115.015 74.0072C114.933 70.876 114.927 67.7393 114.684 64.6139C114.434 61.4208 113.755 58.2881 113.44 55.1062C113.307 53.7606 113.773 51.5213 112.265 50.6862C110.962 49.9643 109.124 50.874 109.18 52.3585Z" fill="#0E52B0"/>
<path opacity="0.5" fill-rule="evenodd" clip-rule="evenodd" d="M29.3643 63.7528C29.3953 63.7752 29.4259 63.798 29.4565 63.8208C29.4259 63.798 29.3949 63.7756 29.3643 63.7528ZM22.4635 61.7233C25.0368 62.4198 27.1503 62.16 29.6084 63.9348C31.6461 65.4063 33.7363 67.5592 34.4122 69.9385C35.9737 75.4357 30.6799 78.4483 25.7169 78.5076C20.6335 78.568 13.1091 77.4511 13.3696 71.278C13.5693 66.5352 17.2248 61.9075 22.4635 61.7233ZM22.6448 58.6167C15.972 58.9314 10.5894 66.0308 10.6472 72.0067C10.7168 79.2494 19.3792 81.1153 25.5325 81.1656C32.4774 81.222 39.4027 76.6789 37.5417 69.28C36.0506 63.3519 29.0618 58.3008 22.6448 58.6167Z" fill="#0E52B0"/>
<path opacity="0.5" fill-rule="evenodd" clip-rule="evenodd" d="M15.9307 68.3411C15.9307 70.3608 19.2988 70.3608 19.2988 68.3411C19.2988 66.3445 15.9307 66.2588 15.9307 68.3411Z" fill="#0E52B0"/>
<path opacity="0.5" fill-rule="evenodd" clip-rule="evenodd" d="M22.9956 67.4549C22.9956 69.4905 26.3906 69.4905 26.3906 67.4549C26.3906 65.4424 22.9956 65.3559 22.9956 67.4549Z" fill="#0E52B0"/>
<path opacity="0.5" fill-rule="evenodd" clip-rule="evenodd" d="M19.1014 72.0614C16.9091 74.135 24.6106 77.7703 26.4269 74.8854C27.9187 72.5162 24.6707 73.3017 23.5193 73.1737C22.268 73.034 20.1228 71.0964 19.1014 72.0614Z" fill="#0E52B0"/>
<path opacity="0.5" fill-rule="evenodd" clip-rule="evenodd" d="M80.6749 67.4966C80.4638 67.5805 80.4638 67.5805 80.6749 67.4966V67.4966ZM51.7538 64.1207C49.534 64.5151 42.2491 66.8435 42.1508 69.3386C41.971 73.8737 49.1056 69.2286 50.6548 68.632C54.8634 67.0117 57.0748 70.317 61.3025 70.4914C64.9744 70.643 68.3506 67.6659 71.8094 68.0179C75.4335 68.3866 77.1767 72.0393 81.3604 70.0999C83.5737 69.0741 83.5179 67.4926 81.0333 67.3435C79.5315 67.2534 78.4999 67.8414 76.9342 67.2292C74.4856 66.2725 73.4994 64.7145 70.5693 64.962C68.3582 65.1487 66.3599 66.3293 64.2017 66.7863C59.2598 67.8323 56.5186 63.2751 51.7538 64.1207Z" fill="#0E52B0"/>
<path opacity="0.5" fill-rule="evenodd" clip-rule="evenodd" d="M97.7251 69.4659C97.5725 69.5266 97.5725 69.5266 97.7251 69.4659V69.4659ZM98.2851 67.5775C98.3096 67.5876 98.4771 67.8076 98.2851 67.5775V67.5775ZM95.7405 66.136C95.6449 66.2058 95.6449 66.2058 95.7405 66.136V66.136ZM95.796 66.1183C96.2895 66.3979 100.257 68.968 97.3751 69.5733C95.9123 69.8805 94.702 67.0919 95.796 66.1183ZM94.4824 63.2711C88.1274 66.0162 94.9659 75.8398 99.9533 71.8485C102.052 70.1689 102.328 66.7742 100.287 65.0245C99.0632 63.9759 96.143 62.5525 94.4824 63.2711Z" fill="#0E52B0"/>
<path opacity="0.5" fill-rule="evenodd" clip-rule="evenodd" d="M34.8277 101.982C26.8979 101.985 18.8985 101.827 10.9794 102.272C9.64662 102.347 4.56969 102.107 3.88305 103.427C2.62683 105.841 7.85065 104.642 8.60958 104.57C24.3774 103.075 40.8484 103.935 56.6682 104.361C69.6065 104.71 82.4756 104.926 95.3985 105.558C98.7954 105.724 102.189 105.907 105.584 106.101C106.69 106.165 109.474 106.859 109.708 105.185C109.924 103.636 106.45 103.986 105.583 103.942C98.6826 103.598 91.7871 103.238 84.8889 102.87C68.2853 101.983 51.4578 101.979 34.8277 101.982Z" fill="#0E52B0"/>
<path opacity="0.5" fill-rule="evenodd" clip-rule="evenodd" d="M3.62851 104.667C2.14736 106.062 2.84165 111.388 2.80034 113.149C2.72804 116.228 2.57465 119.304 2.50579 122.383C2.43426 125.6 2.53372 128.832 2.73454 132.045C2.8187 133.394 3.98733 139.913 5.82729 136.182C6.64935 134.515 5.8074 129.872 5.82002 127.982C5.84259 124.544 6.03807 121.121 6.21862 117.687C6.37393 114.736 6.37966 111.782 6.51584 108.83C6.55907 107.889 6.67651 101.77 3.62851 104.667Z" fill="#0E52B0"/>
<path opacity="0.5" fill-rule="evenodd" clip-rule="evenodd" d="M111.041 132.17C103.324 132.92 95.483 132.565 87.7364 133.119C81.0601 133.596 74.3899 133.791 67.6964 133.925C52.5395 134.228 37.3569 134.524 22.244 135.721C18.7997 135.993 15.3596 136.282 11.9061 136.429C10.179 136.502 2.93161 135.757 2.39186 137.482C1.47265 140.42 9.22307 139.257 10.8947 139.211C14.5708 139.11 18.2297 138.859 21.8955 138.594C37.3053 137.482 52.774 137.149 68.2167 136.687C76.6155 136.436 84.9558 135.854 93.3358 135.324C97.5127 135.06 101.701 135.052 105.877 134.796C106.97 134.729 110.838 134.861 111.625 134.028C112.165 133.456 112.301 132.059 111.041 132.17Z" fill="#0E52B0"/>
<path opacity="0.5" fill-rule="evenodd" clip-rule="evenodd" d="M108.426 105.167C108.69 112.178 109.108 119.183 109.358 126.195C109.434 128.303 108.761 132.082 110 133.942C111.993 136.931 113.548 133.767 113.913 131.904C115.065 126.024 113.827 119.529 113.505 113.612C113.383 111.355 114.123 106.332 112.971 104.312C111.874 102.388 108.327 102.581 108.426 105.167Z" fill="#0E52B0"/>
<path opacity="0.5" fill-rule="evenodd" clip-rule="evenodd" d="M95.4699 115.152C98.4264 115.911 98.8583 122.001 95.5223 122.452C90.5567 123.122 92.7283 116.408 95.4699 115.152ZM94.6417 112.731C93.7397 112.704 91.658 112.468 91.1022 113.164C90.637 113.746 91.1071 114.974 91.0528 115.528C90.8573 117.509 89.157 118.653 89.9171 120.993C90.4331 122.58 91.8148 124.072 93.4987 124.624C102.385 127.533 102.277 111.267 94.6417 112.731Z" fill="#0E52B0"/>
<path opacity="0.5" fill-rule="evenodd" clip-rule="evenodd" d="M14.414 113.823C14.3918 113.85 14.3696 113.877 14.3478 113.904C14.3696 113.877 14.3918 113.85 14.414 113.823ZM21.3933 110.305C21.3584 110.024 21.3236 109.742 21.2888 109.46C26.1068 111.615 29.9405 115.623 28.3408 121.002C27.1201 125.107 22.7099 126.562 18.6012 125.549C14.0529 124.427 11.8794 120.875 13.1058 116.514C13.6715 114.502 15.409 111.798 17.6548 111.151C18.7003 110.85 21.0123 111.617 21.3933 110.305ZM18.5759 108.602C17.3572 108.679 16.171 109.161 15.1764 109.818C16.1075 109.072 17.3484 108.628 18.5759 108.602ZM18.6107 105.951C15.6002 106.038 13.6275 107.765 11.8419 109.838C11.2815 110.489 9.38682 112.215 9.62131 113.092C9.80683 113.785 10.2923 114.799 11.3144 114.026C5.96089 124.134 19.7908 132.756 28.2336 125.727C36.113 119.167 28.2956 105.643 18.6107 105.951Z" fill="#0E52B0"/>
<path opacity="0.5" fill-rule="evenodd" clip-rule="evenodd" d="M15.8772 115.341C15.8772 116.687 18.0829 116.687 18.0829 115.341C18.0829 113.995 15.8772 113.995 15.8772 115.341Z" fill="#0E52B0"/>
<path opacity="0.5" fill-rule="evenodd" clip-rule="evenodd" d="M19.6421 115.57C19.6421 116.938 21.8833 116.938 21.8833 115.57C21.8833 114.202 19.6421 114.202 19.6421 115.57Z" fill="#0E52B0"/>
<path opacity="0.5" fill-rule="evenodd" clip-rule="evenodd" d="M21.349 120.375C20.3005 120.455 16.4626 120.118 15.789 120.988C14.6632 122.442 16.4599 122.492 17.3424 122.649C18.1373 122.791 21.5927 122.711 22.0796 122.042C22.51 121.451 22.4094 120.289 21.349 120.375Z" fill="#0E52B0"/>
<path opacity="0.5" fill-rule="evenodd" clip-rule="evenodd" d="M67.5905 116.604C67.4104 116.675 67.4104 116.675 67.5905 116.604V116.604ZM53.0889 115.599C50.7264 115.764 48.7253 117.051 46.4665 117.565C44.0554 118.114 43.0119 117.105 40.8196 116.445C38.539 115.758 36.9167 116.029 35.0836 117.505C34.045 118.341 31.7663 120.265 32.4155 121.751C33.902 125.15 37.2667 119.619 38.8492 119.362C41.3181 118.961 43.5145 121.006 46.3613 120.421C48.9411 119.891 51.2301 118.213 53.9247 118.195C56.1778 118.18 58.3012 119.348 60.5256 119.63C63.9213 120.062 66.1511 118.919 69.2901 118.071C72.0122 117.336 73.921 118.306 76.4813 119.121C77.6514 119.494 81.5559 120.849 80.8371 118.392C80.634 117.698 75.4886 116.457 74.691 116.218C71.8779 115.376 70.0965 115.704 67.4169 116.672C65.1821 117.48 63.3024 117.873 60.9062 117.429C58.2664 116.939 55.8656 115.4 53.0889 115.599Z" fill="#0E52B0"/>
</g>
</svg>
