<svg width="42" height="39" viewBox="0 0 42 39" fill="none" xmlns="http://www.w3.org/2000/svg">
<g opacity="0.5">
<path opacity="0.5" fill-rule="evenodd" clip-rule="evenodd" d="M22.0256 7.2691C29.8577 8.34658 38.0048 11.8361 37.9363 20.4731C37.8789 27.7349 31.4501 35.4636 23.1952 35.0295C15.7662 34.6396 8.77104 26.943 7.84087 20.3472C7.35885 16.9299 8.26053 13.2506 10.3823 10.4395C13.1624 6.75627 17.5738 6.7621 22.0256 7.2691ZM18.3261 2.57477C12.6615 2.60395 8.51694 4.54551 5.0111 8.64312C3.75367 10.1123 2.29143 11.6939 1.33431 13.3586C0.440326 14.9132 0.597023 18.8667 3.66474 17.0134C2.90936 24.6673 7.63105 32.0962 14.4187 36.018C21.7969 40.2816 30.1365 39.4503 36.2769 33.4746C41.8979 28.0044 43.8761 18.7649 39.7639 11.9999C35.654 5.23818 26.1313 2.50218 18.3261 2.57477Z" fill="#10AABC"/>
<path opacity="0.5" fill-rule="evenodd" clip-rule="evenodd" d="M35.3117 0.523476C31.6849 3.04171 28.3735 6.35766 25.623 9.72102C22.9346 13.0085 21.1574 17.1134 17.928 19.98C16.2971 18.297 14.3863 13.7519 11.133 15.5552C8.43337 17.0514 10.1717 19.6247 11.4865 21.3142C14.8818 25.677 18.6521 27.4329 23.0065 23.1223C26.9613 19.2078 29.207 13.9857 32.9046 9.84576C34.5266 8.02931 37.0322 6.22635 38.3239 4.22095C39.4947 2.40303 38.0467 -1.38089 35.3117 0.523476Z" fill="#10AABC"/>
</g>
</svg>
